#!OML:ASF E:\Steps\Project 1\Capture day 1\Session 2\Subject.ASF
:FULLY-SPECIFIED
:DEGREES
840
root 10.2332 16.4467 5.36189 22.9159 -4.52665 0.88498
lowerback -23.5415 -2.12315 -4.25352
upperback -2.58069 -1.71459 0.152473
thorax 10.4324 -0.994857 2.05941
lowerneck -0.84617 9.12535 3.42523
upperneck 0.497183 12.1232 0.094487
head 0.487026 6.06754 -0.415037
rclavicle -8.44835e-016 -6.95746e-015
rhumerus -19.0901 28.3418 -41.7155
rradius 120.331
rwrist -19.6345
rhand -8.21751 -53.2403
rfingers 7.12502
rthumb 17.6995 -82.4548
lclavicle -8.44835e-016 -6.95746e-015
lhumerus -23.3269 -35.9648 24.0287
lradius 112.665
lwrist 12.7819
lhand -25.9487 -21.3783
lfingers 7.12502
lthumb 0.595295 8.60059
rfemur -22.3688 6.04306 15.5752
rtibia 6.2555
rfoot -14.923 -2.69662
rtoes -21.7634
lfemur -20.9218 -6.98238 -18.5053
ltibia 5.9118
lfoot -5.87819 0.1236
ltoes -32.5263
841
root 10.2331 16.4479 5.37861 23.0807 -4.51348 0.817889
lowerback -23.2628 -2.1267 -4.17
upperback -2.8551 -1.77098 0.244777
thorax 9.97799 -1.00953 2.10537
lowerneck -1.64379 9.34354 2.56321
upperneck 1.44443 12.3811 0.892545
head 0.806273 6.2091 0.0190022
rclavicle -5.01931e-015 4.57205e-015
rhumerus -22.3916 28.0606 -41.8004
rradius 121.978
rwrist -19.7158
rhand -7.77343 -52.7535
rfingers 7.12502
rthumb 18.1268 -81.9289
lclavicle -5.01931e-015 4.57205e-015
lhumerus -27.5436 -36.2139 25.2435
lradius 113.387
lwrist 12.569
lhand -25.4952 -21.7759
lfingers 7.12502
lthumb 1.03334 8.20131
rfemur -22.4864 6.03117 15.647
rtibia 6.29568
rfoot -15.1103 -2.58314
rtoes -16.3372
lfemur -21.0496 -6.9661 -18.4099
ltibia 5.91389
lfoot -5.93001 0.110093
ltoes -31.672
842
root 10.2323 16.4494 5.39592 23.2715 -4.48728 0.781743
lowerback -23.2454 -2.16125 -4.14896
upperback -2.95225 -1.8364 0.354026
thorax 9.86723 -1.03897 2.19551
lowerneck -0.75507 9.31507 2.62453
upperneck 0.762266 12.3838 0.479361
head 0.480969 6.2 -0.177723
rclavicle 1.49089e-016 1.39149e-015
rhumerus -25.5172 27.5485 -41.7757
rradius 123.475
rwrist -19.9855
rhand -7.4541 -52.5119
rfingers 7.12502
rthumb 18.434 -81.6584
lclavicle 1.49089e-016 1.39149e-015
lhumerus -31.7663 -36.102 26.6669
lradius 113.993
lwrist 12.3036
lhand -25.7023 -21.5188
lfingers 7.12502
lthumb 0.833258 8.45933
rfemur -22.5932 6.02294 15.6848
rtibia 6.25078
rfoot -14.9983 -2.69897
rtoes -20.644
lfemur -21.215 -6.903 -18.3669
ltibia 5.95532
lfoot -6.04108 0.0294056
ltoes -31.7537
843
root 10.2311 16.4503 5.41086 23.425 -4.42409 0.771454
lowerback -23.3125 -2.18473 -4.1678
upperback -2.68419 -1.86663 0.468844
thorax 10.2118 -1.06593 2.31936
lowerneck -2.37494 9.4361 1.76332
upperneck 1.46237 12.5046 1.07713
head 0.870637 6.2703 0.230962
rclavicle -2.70347e-014 3.97569e-015
rhumerus -28.3818 26.2086 -41.6818
rradius 124.775
rwrist -20.2391
rhand -7.09862 -51.9917
rfingers 7.12502
rthumb 18.776 -81.1055
lclavicle -2.70347e-014 3.97569e-015
lhumerus -35.5677 -35.2467 28.0491
lradius 114.423
lwrist 12.0307
lhand -25.842 -20.9234
lfingers 7.12502
lthumb 0.698381 9.05518
rfemur -22.6822 6.06071 15.6886
rtibia 6.21848
rfoot -14.9454 -2.83417
rtoes -22.1165
lfemur -21.3783 -6.73329 -18.3887
ltibia 6.05629
lfoot -6.08559 -0.115169
ltoes -33.5263
844
root 10.2298 16.4524 5.42195 23.522 -4.36924 0.729478
lowerback -23.0955 -2.20721 -4.11915
upperback -2.76168 -1.92822 0.540119
thorax 10.0137 -1.0907 2.35624
lowerneck -1.48595 9.42566 1.74288
upperneck 0.712022 12.5242 0.839941
head 0.50554 6.27088 0.0922992
rclavicle 2.37548e-014 -1.59028e-014
rhumerus -32.2941 24.9063 -42.3835
rradius 126.141
rwrist -20.2528
rhand -6.56402 -51.2278
rfingers 7.12502
rthumb 19.2901 -80.2911
lclavicle 2.37548e-014 -1.59028e-014
lhumerus -39.7967 -34.7395 29.6507
lradius 114.723
lwrist 11.7694
lhand -25.4447 -20.7779
lfingers 7.12502
lthumb 1.08211 9.19911
rfemur -22.742 6.28167 15.6789
rtibia 6.20311
rfoot -15.0489 -3.03478
rtoes -21.7039
lfemur -21.5345 -6.6432 -18.3287
ltibia 6.20569
lfoot -6.05799 -0.225707
ltoes -34.2142
845
root 10.2301 16.455 5.43698 23.5358 -4.34409 0.689534
lowerback -22.8051 -2.20458 -4.03657
upperback -2.85681 -1.96479 0.577146
thorax 9.7525 -1.10052 2.34544
lowerneck -0.799251 9.53498 1.53615
upperneck 0.0527551 12.6962 0.890264
head 0.177417 6.35028 0.0794278
rclavicle 4.5472e-015 -6.16232e-015
rhumerus -34.9683 24.6944 -42.3211
rradius 126.798
rwrist -20.976
rhand -6.51089 -51.4478
rfingers 7.12502
rthumb 19.3412 -80.506
lclavicle 4.5472e-015 -6.16232e-015
lhumerus -43.9659 -34.0466 31.3995
lradius 114.756
lwrist 11.2723
lhand -24.9994 -20.832
lfingers 7.12502
lthumb 1.51211 9.14237
rfemur -22.6213 6.41001 15.694
rtibia 6.05752
rfoot -14.4701 -3.15765
rtoes -24.4944
lfemur -21.517 -6.81239 -18.2376
ltibia 6.28006
lfoot -6.11617 -0.161922
ltoes -32.7952
846
root 10.2298 16.4572 5.45582 23.5971 -4.40311 0.749054
lowerback -22.6825 -2.16459 -4.07432
upperback -2.92067 -1.90751 0.55552
thorax 9.6114 -1.07137 2.36413
lowerneck 0.0803807 9.5711 1.40831
upperneck -0.794159 12.7741 0.864007
head -0.223153 6.38011 0.0153951
rclavicle 1.06847e-015 -1.5704e-014
rhumerus -38.2397 23.9657 -42.6531
rradius 127.491
rwrist -21.3756
rhand -5.92355 -51.7162
rfingers 7.12502
rthumb 19.9058 -80.7167
lclavicle 1.06847e-015 -1.5704e-014
lhumerus -47.9253 -33.1553 33.2371
lradius 114.556
lwrist 10.39
lhand -24.8099 -20.5548
lfingers 7.12502
lthumb 1.69515 9.41823
rfemur -22.5725 6.36548 15.6267
rtibia 5.95531
rfoot -15.035 -3.11825
rtoes -21.7628
lfemur -21.4572 -6.94568 -18.2966
ltibia 6.22539
lfoot -6.19925 -0.0245609
ltoes -32.4163
